HIERARCHY
ROOT Hips
{
  OFFSET 5.72205e-005 65.662 3.42586
  CHANNELS 6 Xposition Yposition Zposition Zrotation Xrotation Yrotation
  JOINT Chest
  {
    OFFSET 0 8.7983 -4.7612
    CHANNELS 6 Xposition Yposition Zposition Zrotation Xrotation Yrotation
    JOINT Chest2
    {
      OFFSET 0 8.0291 0.4195
      CHANNELS 6 Xposition Yposition Zposition Zrotation Xrotation Yrotation
      JOINT Chest3
      {
        OFFSET 0 9.9351 -2.2114
        CHANNELS 6 Xposition Yposition Zposition Zrotation Xrotation Yrotation
        JOINT Neck
        {
          OFFSET 0 22.3885 -0.4656
          CHANNELS 6 Xposition Yposition Zposition Zrotation Xrotation Yrotation
          JOINT Head
          {
            OFFSET -0.0001 12.643 3.4389
            CHANNELS 6 Xposition Yposition Zposition Zrotation Xrotation Yrotation
            End Site
            {
              OFFSET 0.0001 17.6655 0.5274
            }
          }
        }
        JOINT LeftCollar
        {
          OFFSET 2.2603 21.606 7.4023
          CHANNELS 6 Xposition Yposition Zposition Zrotation Xrotation Yrotation
          JOINT LeftShoulder
          {
            OFFSET 13.5163 -1.1332 -5.0146
            CHANNELS 6 Xposition Yposition Zposition Zrotation Xrotation Yrotation
            JOINT LeftElbow
            {
              OFFSET -0.0995 -28.05 -0.2431
              CHANNELS 6 Xposition Yposition Zposition Zrotation Xrotation Yrotation
              JOINT LeftWrist
              {
                OFFSET 0.0679 -23.3996 -0.1402
                CHANNELS 6 Xposition Yposition Zposition Zrotation Xrotation Yrotation
                JOINT LeftFinger1
                {
                  OFFSET 0.7932 -9.069 2.5189
                  CHANNELS 6 Xposition Yposition Zposition Zrotation Xrotation Yrotation
                  JOINT LeftFinger11
                  {
                    OFFSET -0.8272 -3.3923 0.5977
                    CHANNELS 6 Xposition Yposition Zposition Zrotation Xrotation Yrotation
                    JOINT LeftFinger12
                    {
                      OFFSET -0.5649 -2.3158 0.4082
                      CHANNELS 6 Xposition Yposition Zposition Zrotation Xrotation Yrotation
                      End Site
                      {
                        OFFSET -0.4919 -1.6479 0.2673
                      }
                    }
                  }
                }
                JOINT LeftFinger2
                {
                  OFFSET 0.9159 -9.2044 0.2193
                  CHANNELS 6 Xposition Yposition Zposition Zrotation Xrotation Yrotation
                  JOINT LeftFinger21
                  {
                    OFFSET 0.0117 -4.1944 -0.0248
                    CHANNELS 6 Xposition Yposition Zposition Zrotation Xrotation Yrotation
                    JOINT LeftFinger22
                    {
                      OFFSET 0.0071 -2.3249 -0.0142
                      CHANNELS 6 Xposition Yposition Zposition Zrotation Xrotation Yrotation
                      End Site
                      {
                        OFFSET -0.1475 -2.0882 0.0028
                      }
                    }
                  }
                }
                JOINT LeftFinger3
                {
                  OFFSET 0.6113 -8.7231 -2.0637
                  CHANNELS 6 Xposition Yposition Zposition Zrotation Xrotation Yrotation
                  JOINT LeftFinger31
                  {
                    OFFSET -0.1927 -3.8059 -0.2383
                    CHANNELS 6 Xposition Yposition Zposition Zrotation Xrotation Yrotation
                    JOINT LeftFinger32
                    {
                      OFFSET -0.1091 -2.1688 -0.1362
                      CHANNELS 6 Xposition Yposition Zposition Zrotation Xrotation Yrotation
                      End Site
                      {
                        OFFSET -0.2358 -1.9176 -0.0906
                      }
                    }
                  }
                }
                JOINT LeftFinger4
                {
                  OFFSET -0.6151 -8.0947 -3.5641
                  CHANNELS 6 Xposition Yposition Zposition Zrotation Xrotation Yrotation
                  JOINT LeftFinger41
                  {
                    OFFSET -0.4882 -2.341 -0.6462
                    CHANNELS 6 Xposition Yposition Zposition Zrotation Xrotation Yrotation
                    JOINT LeftFinger42
                    {
                      OFFSET -0.3575 -1.7167 -0.4742
                      CHANNELS 6 Xposition Yposition Zposition Zrotation Xrotation Yrotation
                      End Site
                      {
                        OFFSET -0.4187 -1.5237 -0.3496
                      }
                    }
                  }
                }
                JOINT LeftFinger0
                {
                  OFFSET -1.42 -1.8761 1.4223
                  CHANNELS 6 Xposition Yposition Zposition Zrotation Xrotation Yrotation
                  JOINT LeftFinger01
                  {
                    OFFSET -1.1471 -3.4929 2.6334
                    CHANNELS 6 Xposition Yposition Zposition Zrotation Xrotation Yrotation
                    JOINT LeftFinger02
                    {
                      OFFSET -0.823 -2.3 1.6571
                      CHANNELS 6 Xposition Yposition Zposition Zrotation Xrotation Yrotation
                      End Site
                      {
                        OFFSET -0.5822 -1.6914 1.1582
                      }
                    }
                  }
                }
              }
            }
          }
        }
        JOINT RightCollar
        {
          OFFSET -2.2603 21.606 7.4023
          CHANNELS 6 Xposition Yposition Zposition Zrotation Xrotation Yrotation
          JOINT RightShoulder
          {
            OFFSET -13.5187 -1.1334 -5.0155
            CHANNELS 6 Xposition Yposition Zposition Zrotation Xrotation Yrotation
            JOINT RightElbow
            {
              OFFSET 0.0994 -28.0499 -0.2431
              CHANNELS 6 Xposition Yposition Zposition Zrotation Xrotation Yrotation
              JOINT RightWrist
              {
                OFFSET -0.0679 -23.3996 -0.1402
                CHANNELS 6 Xposition Yposition Zposition Zrotation Xrotation Yrotation
                JOINT RightFinger1
                {
                  OFFSET -0.7932 -9.0691 2.5189
                  CHANNELS 6 Xposition Yposition Zposition Zrotation Xrotation Yrotation
                  JOINT RightFinger11
                  {
                    OFFSET 0.8272 -3.3923 0.5977
                    CHANNELS 6 Xposition Yposition Zposition Zrotation Xrotation Yrotation
                    JOINT RightFinger12
                    {
                      OFFSET 0.565 -2.3158 0.4082
                      CHANNELS 6 Xposition Yposition Zposition Zrotation Xrotation Yrotation
                      End Site
                      {
                        OFFSET 0.4919 -1.6479 0.2673
                      }
                    }
                  }
                }
                JOINT RightFinger2
                {
                  OFFSET -0.916 -9.2044 0.2193
                  CHANNELS 6 Xposition Yposition Zposition Zrotation Xrotation Yrotation
                  JOINT RightFinger21
                  {
                    OFFSET -0.0117 -4.1944 -0.0248
                    CHANNELS 6 Xposition Yposition Zposition Zrotation Xrotation Yrotation
                    JOINT RightFinger22
                    {
                      OFFSET -0.0071 -2.3249 -0.0142
                      CHANNELS 6 Xposition Yposition Zposition Zrotation Xrotation Yrotation
                      End Site
                      {
                        OFFSET 0.1475 -2.0882 0.0028
                      }
                    }
                  }
                }
                JOINT RightFinger3
                {
                  OFFSET -0.6113 -8.7231 -2.0637
                  CHANNELS 6 Xposition Yposition Zposition Zrotation Xrotation Yrotation
                  JOINT RightFinger31
                  {
                    OFFSET 0.1927 -3.8059 -0.2383
                    CHANNELS 6 Xposition Yposition Zposition Zrotation Xrotation Yrotation
                    JOINT RightFinger32
                    {
                      OFFSET 0.1091 -2.1688 -0.1362
                      CHANNELS 6 Xposition Yposition Zposition Zrotation Xrotation Yrotation
                      End Site
                      {
                        OFFSET 0.2358 -1.9176 -0.0906
                      }
                    }
                  }
                }
                JOINT RightFinger4
                {
                  OFFSET 0.6151 -8.0947 -3.564
                  CHANNELS 6 Xposition Yposition Zposition Zrotation Xrotation Yrotation
                  JOINT RightFinger41
                  {
                    OFFSET 0.4882 -2.341 -0.6462
                    CHANNELS 6 Xposition Yposition Zposition Zrotation Xrotation Yrotation
                    JOINT RightFinger42
                    {
                      OFFSET 0.3574 -1.7166 -0.4742
                      CHANNELS 6 Xposition Yposition Zposition Zrotation Xrotation Yrotation
                      End Site
                      {
                        OFFSET 0.4187 -1.5237 -0.3496
                      }
                    }
                  }
                }
                JOINT RightFinger0
                {
                  OFFSET 1.4199 -1.8761 1.4221
                  CHANNELS 6 Xposition Yposition Zposition Zrotation Xrotation Yrotation
                  JOINT RightFinger01
                  {
                    OFFSET 1.1472 -3.4929 2.6336
                    CHANNELS 6 Xposition Yposition Zposition Zrotation Xrotation Yrotation
                    JOINT RightFinger02
                    {
                      OFFSET 0.8229 -2.3 1.6571
                      CHANNELS 6 Xposition Yposition Zposition Zrotation Xrotation Yrotation
                      End Site
                      {
                        OFFSET 0.5822 -1.6914 1.1582
                      }
                    }
                  }
                }
              }
            }
          }
        }
      }
    }
  }
  JOINT RightHip
  {
    OFFSET -9.412 3.9771 -0.7758
    CHANNELS 6 Xposition Yposition Zposition Zrotation Xrotation Yrotation
    JOINT RightKnee
    {
      OFFSET -0.7531 -40.938 0
      CHANNELS 6 Xposition Yposition Zposition Zrotation Xrotation Yrotation
      JOINT RightAnkle
      {
        OFFSET 0 -40.1986 0
        CHANNELS 6 Xposition Yposition Zposition Zrotation Xrotation Yrotation
        JOINT RightToe
        {
          OFFSET 0 -4.4182 9.239
          CHANNELS 6 Xposition Yposition Zposition Zrotation Xrotation Yrotation
          End Site
          {
            OFFSET 0 0 6.1981
          }
        }
      }
    }
  }
  JOINT LeftHip
  {
    OFFSET 9.4119 3.9773 -0.7758
    CHANNELS 6 Xposition Yposition Zposition Zrotation Xrotation Yrotation
    JOINT LeftKnee
    {
      OFFSET 0.7532 -40.9383 0
      CHANNELS 6 Xposition Yposition Zposition Zrotation Xrotation Yrotation
      JOINT LeftAnkle
      {
        OFFSET 0 -40.1986 0
        CHANNELS 6 Xposition Yposition Zposition Zrotation Xrotation Yrotation
        JOINT LeftToe
        {
          OFFSET 0 -4.4182 9.239
          CHANNELS 6 Xposition Yposition Zposition Zrotation Xrotation Yrotation
          End Site
          {
            OFFSET 0 0 6.1981
          }
        }
      }
    }
  }
}
MOTION
Frames:	4
Frame Time:	0.0333333
5.72205e-005 65.662 3.42586 0 0 -0 0 8.7983 -4.7612 0 0 -0 0 8.0291 0.4195 0 0 -0 0 9.9351 -2.2114 0 0 -0 0 22.3885 -0.4656 0 0 -0 -0.0001 12.643 3.4389 0 0 -0 2.2603 21.606 7.4023 0 0 -12.5014 13.5163 -1.1332 -5.0146 88.1196 14.2451 10.6914 -0.0995 -28.05 -0.2431 -0.00160068 -0.00239207 0.000740045 0.0679 -23.3996 -0.1402 -8.4365e-005 7.00714e-005 -9.52055e-007 0.7932 -9.069 2.5189 9.93923e-017 -1.98785e-016 -1.59028e-015 -0.8272 -3.3923 0.5977 9.93923e-017 -5.96354e-016 -1.59028e-015 -0.5649 -2.3158 0.4082 -9.93923e-017 -5.96354e-016 -1.59028e-015 0.9159 -9.2044 0.2193 9.93923e-017 -1.98785e-016 -1.59028e-015 0.0117 -4.1944 -0.0248 -0.0128176 0.00232552 8.52707e-005 0.0071 -2.3249 -0.0142 9.93923e-017 5.96354e-016 -0 0.6113 -8.7231 -2.0637 9.93923e-017 -1.98785e-016 -1.59028e-015 -0.1927 -3.8059 -0.2383 -0.0160551 0.00299681 0.000857156 -0.1091 -2.1688 -0.1362 -2.48481e-016 0 3.18055e-015 -0.6151 -8.0947 -3.5641 9.93923e-017 -1.98785e-016 -1.59028e-015 -0.4882 -2.341 -0.6462 -0.0125865 0.0031206 0.00282719 -0.3575 -1.7167 -0.4742 0 1.98785e-016 -0 -1.42 -1.8761 1.4223 9.93923e-017 -1.98785e-016 -1.59028e-015 -1.1471 -3.4929 2.6334 9.93923e-017 -5.96354e-016 -1.59028e-015 -0.823 -2.3 1.6571 -9.93923e-017 -5.96354e-016 -1.59028e-015 -2.2603 21.606 7.4023 -0.865644 0.16582 7.03859 -13.5187 -1.1334 -5.0155 -88.0329 10.2057 -10.5567 0.0994 -28.0499 -0.2431 0.0015593 -0.00248883 -0.000788628 -0.0679 -23.3996 -0.1402 7.87605e-005 4.10553e-005 1.24965e-005 -0.7932 -9.0691 2.5189 -3.97569e-016 -7.95139e-016 3.18055e-015 0.8272 -3.3923 0.5977 -1.98785e-016 -3.97569e-016 3.18055e-015 0.565 -2.3158 0.4082 -1.98785e-016 0 3.18055e-015 -0.916 -9.2044 0.2193 -3.97569e-016 -7.95139e-016 3.18055e-015 -0.0117 -4.1944 -0.0248 0.0129473 0.00231697 -8.70038e-005 -0.0071 -2.3249 -0.0142 9.93923e-017 -7.95139e-016 1.59028e-015 -0.6113 -8.7231 -2.0637 -3.97569e-016 -7.95139e-016 3.18055e-015 0.1927 -3.8059 -0.2383 0.0163314 0.00303369 -0.000872333 0.1091 -2.1688 -0.1362 3.97569e-016 7.95139e-016 -3.18055e-015 0.6151 -8.0947 -3.564 -3.97569e-016 -7.95139e-016 3.18055e-015 0.4882 -2.341 -0.6462 0.0145763 0.00367772 -0.00326275 0.3574 -1.7166 -0.4742 9.93923e-017 -3.97569e-016 -0 1.4199 -1.8761 1.4221 -3.97569e-016 -7.95139e-016 3.18055e-015 1.1472 -3.4929 2.6336 -1.98785e-016 -3.97569e-016 3.18055e-015 0.8229 -2.3 1.6571 -1.98785e-016 0 3.18055e-015 -9.412 3.9771 -0.7758 3.42482 1.32465 -0.0626183 -0.7531 -40.938 0 0.000117508 0.717283 0.000978199 0 -40.1986 0 -3.4257 -2.04197 -0.0604716 8.88178e-016 -4.4182 9.239 6.47761e-025 0 -0 9.4119 3.9773 -0.7758 -3.42483 1.34017 0.0627307 0.7532 -40.9383 -2.22045e-016 -0.000193936 0.682302 -0.0013703 -8.88179e-016 -40.1986 0 3.42574 -2.02253 0.0595886 -8.88178e-016 -4.4182 9.239 -8.45714e-024 0 -7.40531e-025 
0.148358 20.8746 8.92005 7.79109e-008 -66.6681 9.30312e-008 0 8.7983 -4.7612 0.125175 3.7476 -0.197806 2.77556e-017 8.0291 0.4195 0.264197 7.49472 -0.405142 0 9.9351 -2.2114 0.264198 7.49473 -0.405142 0 22.3885 -0.4656 2.51627e-006 13.3586 -3.30347e-006 -0.0001 12.643 3.4389 4.30539e-007 6.6656 -1.30278e-007 2.2603 21.606 7.4023 13.9585 2.46056 -8.36265 13.5163 -1.1332 -5.0146 43.7902 45.2244 9.2902 -0.0995 -28.05 -0.2431 -13.9785 -53.7001 -33.6992 0.0679 -23.3996 -0.1402 -4.38058 1.42193 -17.5811 0.7932 -9.069 2.5189 -1.98785e-015 9.54166e-015 7.95139e-016 -0.8272 -3.3923 0.5977 -1.68509e-006 -8.07266e-008 3.21587e-006 -0.5649 -2.3158 0.4082 9.75587e-007 -3.07806e-006 1.40062e-006 0.9159 -9.2044 0.2193 -1.98785e-015 9.54166e-015 7.95139e-016 0.0117 -4.1944 -0.0248 -0.0128027 0.00232178 8.89436e-005 0.0071 -2.3249 -0.0142 1.19271e-015 3.18055e-015 -2.18663e-015 0.6113 -8.7231 -2.0637 -1.98785e-015 9.54166e-015 7.95139e-016 -0.1927 -3.8059 -0.2383 -0.0160563 0.00299641 0.000858612 -0.1091 -2.1688 -0.1362 -2.08724e-015 -3.18055e-015 7.95139e-016 -0.6151 -8.0947 -3.5641 -1.98785e-015 9.54166e-015 7.95139e-016 -0.4882 -2.341 -0.6462 -0.0126186 0.00312265 0.00283768 -0.3575 -1.7167 -0.4742 -2.5842e-015 0 3.97569e-016 -1.42 -1.8761 1.4223 -1.98785e-015 9.54166e-015 7.95139e-016 -1.1471 -3.4929 2.6334 -1.68509e-006 -8.07266e-008 3.21587e-006 -0.823 -2.3 1.6571 9.75587e-007 -3.07806e-006 1.40062e-006 -2.2603 21.606 7.4023 -7.65476 2.14655 -0.599432 -13.5187 -1.1334 -5.0155 -61.6438 27.4386 2.95535 0.0994 -28.0499 -0.2431 14.3495 -40.701 34.9273 -0.0679 -23.3996 -0.1402 4.0384 1.05891 17.6981 -0.7932 -9.0691 2.5189 6.75868e-015 3.18055e-015 -3.97569e-015 0.8272 -3.3923 0.5977 1.25591e-005 -1.66342e-007 -4.44975e-006 0.565 -2.3158 0.4082 1.19271e-015 0 -7.95139e-016 -0.916 -9.2044 0.2193 6.75868e-015 3.18055e-015 -3.97569e-015 -0.0117 -4.1944 -0.0248 0.01294 0.0023181 -8.77075e-005 -0.0071 -2.3249 -0.0142 -1.59028e-015 6.36111e-015 -7.95139e-016 -0.6113 -8.7231 -2.0637 6.75868e-015 3.18055e-015 -3.97569e-015 0.1927 -3.8059 -0.2383 0.0163376 0.00303426 -0.000876269 0.1091 -2.1688 -0.1362 -5.96354e-015 -3.18055e-015 -7.95139e-016 0.6151 -8.0947 -3.564 6.75868e-015 3.18055e-015 -3.97569e-015 0.4882 -2.341 -0.6462 0.0146012 0.0036854 -0.00326558 0.3574 -1.7166 -0.4742 2.78299e-015 1.90833e-014 -3.18055e-015 1.4199 -1.8761 1.4221 6.75868e-015 3.18055e-015 -3.97569e-015 1.1472 -3.4929 2.6336 1.25591e-005 -1.66342e-007 -4.44975e-006 0.8229 -2.3 1.6571 1.19271e-015 0 -7.95139e-016 -9.412 3.9771 -0.7758 -167.711 -76.2547 -173.604 -0.7531 -40.938 -1.77636e-015 2.55643 34.8017 -2.3963 0 -40.1986 1.42109e-014 -7.00342 8.25493 -0.519783 1.33227e-015 -4.4182 9.239 1.59028e-015 9.54166e-015 7.95139e-016 9.4119 3.9773 -0.7758 139.838 -76.6466 149.886 0.7532 -40.9383 1.77636e-015 -1.47883 9.95722 0.593266 1.77636e-015 -40.1986 -3.55271e-015 7.19602 6.58028 0.900758 -3.55271e-015 -4.4182 9.239 4.27104e-007 -8.42738e-008 -7.33978e-007 
0.259094 -1.58117 4.92735 -180 -83.3313 -180 0 8.7983 -4.7612 0.181046 5.43426 -0.295067 0 8.0291 0.4195 0.393022 10.8675 -0.611629 5.55112e-017 9.9351 -2.2114 0.393023 10.8675 -0.611631 2.77556e-017 22.3885 -0.4656 1.07487e-006 19.239 -1.43086e-006 -0.0001 12.643 3.4389 -1.904e-007 9.66512 3.91094e-007 2.2603 21.606 7.4023 20.1238 3.55751 -6.49414 13.5163 -1.1332 -5.0146 18.5568 56.9765 11.901 -0.0995 -28.05 -0.2431 -44.9307 -75.5218 -73.8985 0.0679 -23.3996 -0.1402 -6.37331 2.01653 -25.5281 0.7932 -9.069 2.5189 2.88562e-006 -1.24624e-005 -1.18959e-005 -0.8272 -3.3923 0.5977 -5.56597e-015 0 7.95139e-015 -0.5649 -2.3158 0.4082 -4.77083e-015 9.54166e-015 1.35174e-014 0.9159 -9.2044 0.2193 2.88562e-006 -1.24624e-005 -1.18959e-005 0.0117 -4.1944 -0.0248 -0.0128108 0.00234337 9.58008e-005 0.0071 -2.3249 -0.0142 7.95139e-016 -6.36111e-015 1.59028e-015 0.6113 -8.7231 -2.0637 2.88562e-006 -1.24624e-005 -1.18959e-005 -0.1927 -3.8059 -0.2383 -0.0160745 0.00300711 0.000866948 -0.1091 -2.1688 -0.1362 -2.38542e-015 9.54166e-015 7.95139e-016 -0.6151 -8.0947 -3.5641 2.88562e-006 -1.24624e-005 -1.18959e-005 -0.4882 -2.341 -0.6462 -0.0126005 0.00312965 0.0028262 -0.3575 -1.7167 -0.4742 -3.97252e-031 9.54166e-015 2.38542e-015 -1.42 -1.8761 1.4223 2.88562e-006 -1.24624e-005 -1.18959e-005 -1.1471 -3.4929 2.6334 -5.56597e-015 0 7.95139e-015 -0.823 -2.3 1.6571 -4.77083e-015 9.54166e-015 1.35174e-014 -2.2603 21.606 7.4023 -10.5999 3.0257 -4.0867 -13.5187 -1.1334 -5.0155 -49.1796 34.6623 9.0775 0.0994 -28.0499 -0.2431 24.4588 -59.0576 54.2177 -0.0679 -23.3996 -0.1402 5.91847 1.44835 25.7267 -0.7932 -9.0691 2.5189 1.19271e-015 6.36111e-015 -9.93923e-016 0.8272 -3.3923 0.5977 1.39149e-015 9.54166e-015 -4.67144e-015 0.565 -2.3158 0.4082 1.39149e-015 9.54166e-015 -2.98177e-015 -0.916 -9.2044 0.2193 1.19271e-015 6.36111e-015 -9.93923e-016 -0.0117 -4.1944 -0.0248 0.012975 0.00232742 -8.48379e-005 -0.0071 -2.3249 -0.0142 1.98785e-016 -6.36111e-015 -0 -0.6113 -8.7231 -2.0637 1.19271e-015 6.36111e-015 -9.93923e-016 0.1927 -3.8059 -0.2383 0.0163527 0.00304505 -0.00087366 0.1091 -2.1688 -0.1362 7.95139e-016 1.59028e-014 -1.39149e-015 0.6151 -8.0947 -3.564 1.19271e-015 6.36111e-015 -9.93923e-016 0.4882 -2.341 -0.6462 0.0146181 0.00369174 -0.00326727 0.3574 -1.7166 -0.4742 -1.19271e-015 -6.36111e-015 3.47873e-015 1.4199 -1.8761 1.4221 1.19271e-015 6.36111e-015 -9.93923e-016 1.1472 -3.4929 2.6336 1.39149e-015 9.54166e-015 -4.67144e-015 0.8229 -2.3 1.6571 1.39149e-015 9.54166e-015 -2.98177e-015 -9.412 3.9771 -0.7758 -170.579 -29.7745 -175.014 -0.7531 -40.938 8.88178e-016 4.2518 48.7759 -3.88036 3.55271e-015 -40.1986 0 -8.36599 13.6605 -0.690597 0 -4.4182 9.239 -4.37326e-015 -3.97569e-016 1.59028e-015 9.4119 3.9773 -0.7758 157.826 -33.2425 165.208 0.7532 -40.9383 -6.66134e-016 -2.14942 10.7626 0.697479 3.55271e-015 -40.1986 7.10543e-015 8.71563 12.1773 1.18106 7.10543e-015 -4.4182 9.239 9.63252e-006 -1.74752e-007 -1.27259e-006 
0.244617 3.77231 5.87958 179.999 -89.9981 179.999 5.55112e-017 8.7983 -4.7612 0.168633 5.05946 -0.272999 0 8.0291 0.4195 0.363716 10.118 -0.564335 0 9.9351 -2.2114 0.363717 10.1181 -0.564337 -5.55112e-017 22.3885 -0.4656 -1.28259e-006 17.6412 1.50097e-006 -0.0001 12.643 3.4389 5.19175e-007 8.99856 -2.69726e-007 2.2603 21.606 7.4023 18.7599 3.31451 -6.90985 13.5163 -1.1332 -5.0146 24.5668 54.4905 11.0065 -0.0995 -28.05 -0.2431 -32.3423 -71.284 -59.26 0.0679 -23.3996 -0.1402 -6.04393 1.9425 -23.8768 0.7932 -9.069 2.5189 -1.59028e-015 3.18055e-015 -5.1684e-015 -0.8272 -3.3923 0.5977 -1.06166e-006 1.77667e-006 3.09554e-006 -0.5649 -2.3158 0.4082 1.59028e-015 -9.54166e-015 -3.18055e-015 0.9159 -9.2044 0.2193 -1.59028e-015 3.18055e-015 -5.1684e-015 0.0117 -4.1944 -0.0248 -0.0128246 0.00231782 8.29956e-005 0.0071 -2.3249 -0.0142 -1.59028e-015 3.18055e-015 -1.98785e-015 0.6113 -8.7231 -2.0637 -1.59028e-015 3.18055e-015 -5.1684e-015 -0.1927 -3.8059 -0.2383 -0.0160361 0.00299727 0.00085384 -0.1091 -2.1688 -0.1362 -2.38542e-015 1.59028e-014 1.59028e-015 -0.6151 -8.0947 -3.5641 -1.59028e-015 3.18055e-015 -5.1684e-015 -0.4882 -2.341 -0.6462 -0.0126026 0.00313747 0.00283005 -0.3575 -1.7167 -0.4742 -7.95139e-016 1.27222e-014 2.38542e-015 -1.42 -1.8761 1.4223 -1.59028e-015 3.18055e-015 -5.1684e-015 -1.1471 -3.4929 2.6334 -1.06166e-006 1.77667e-006 3.09554e-006 -0.823 -2.3 1.6571 1.59028e-015 -9.54166e-015 -3.18055e-015 -2.2603 21.606 7.4023 -10.0822 2.86875 -3.4055 -13.5187 -1.1334 -5.0155 -51.9786 33.084 7.71545 0.0994 -28.0499 -0.2431 21.6948 -55.0006 49.4247 -0.0679 -23.3996 -0.1402 5.61756 1.38848 24.1197 -0.7932 -9.0691 2.5189 -8.61586e-006 -2.70554e-006 8.28262e-006 0.8272 -3.3923 0.5977 1.36018e-005 6.24225e-006 -1.19745e-005 0.565 -2.3158 0.4082 -5.20799e-006 -2.52397e-006 6.72488e-006 -0.916 -9.2044 0.2193 -8.61586e-006 -2.70554e-006 8.28262e-006 -0.0117 -4.1944 -0.0248 0.012961 0.00231964 -8.8097e-005 -0.0071 -2.3249 -0.0142 -2.38542e-015 0 -6.95746e-016 -0.6113 -8.7231 -2.0637 -8.61586e-006 -2.70554e-006 8.28262e-006 0.1927 -3.8059 -0.2383 0.0163301 0.00303521 -0.000875871 0.1091 -2.1688 -0.1362 -2.98177e-015 -9.54166e-015 2.08724e-015 0.6151 -8.0947 -3.564 -8.61586e-006 -2.70554e-006 8.28262e-006 0.4882 -2.341 -0.6462 0.0145733 0.0036733 -0.00325769 0.3574 -1.7166 -0.4742 1.19271e-015 1.27222e-014 -1.39149e-015 1.4199 -1.8761 1.4221 -8.61586e-006 -2.70554e-006 8.28262e-006 1.1472 -3.4929 2.6336 1.36018e-005 6.24225e-006 -1.19745e-005 0.8229 -2.3 1.6571 -5.20799e-006 -2.52397e-006 6.72488e-006 -9.412 3.9771 -0.7758 -170.258 -40.0131 -175.269 -0.7531 -40.938 -8.88178e-016 3.81892 45.7749 -3.50664 -3.55271e-015 -40.1986 0 -8.15434 12.4369 -0.508489 8.88179e-016 -4.4182 9.239 5.96354e-016 -4.77083e-015 -1.59028e-015 9.4119 3.9773 -0.7758 156.539 -42.7665 164.964 0.7532 -40.9383 -3.55271e-015 -2.00315 10.872 0.691255 0 -40.1986 3.55271e-015 8.36455 10.8452 1.12708 5.32907e-015 -4.4182 9.239 -3.97569e-015 4.86876e-008 -3.18055e-015 
